<?xml version="1.0" standalone="no"?>
<!DOCTYPE svg PUBLIC "-//W3C//DTD SVG 20010904//EN"
 "http://www.w3.org/TR/2001/REC-SVG-20010904/DTD/svg10.dtd">
<svg version="1.0" xmlns="http://www.w3.org/2000/svg"
 width="500.000000pt" height="500.000000pt" viewBox="0 0 500.000000 500.000000"
 preserveAspectRatio="xMidYMid meet">
<metadata>
Created by potrace 1.16, written by Peter Selinger 2001-2019
</metadata>
<g transform="translate(0.000000,500.000000) scale(0.100000,-0.100000)"
fill="#000000" stroke="none">
<path d="M717 4183 c-4 -3 -7 -624 -7 -1380 l0 -1373 1790 0 1790 0 -2 1378
-3 1377 -1781 3 c-979 1 -1784 -1 -1787 -5z m3483 -1373 l0 -1290 -1700 0
-1700 0 0 1290 0 1290 1700 0 1700 0 0 -1290z"/>
<path d="M1540 3914 c-188 -51 -300 -216 -300 -444 0 -199 74 -331 228 -407
75 -38 77 -38 196 -38 103 0 130 4 178 23 63 26 147 96 184 153 86 137 92 366
14 519 -84 164 -300 248 -500 194z m200 -192 c53 -38 65 -83 65 -242 0 -219
-27 -270 -143 -270 -102 0 -137 66 -137 260 0 177 27 247 101 270 37 12 83 4
114 -18z"/>
<path d="M2205 3908 c-3 -7 -4 -206 -3 -443 l3 -430 330 0 330 0 3 89 c2 65
-1 92 -10 98 -7 4 -97 8 -200 8 l-188 0 -2 343 -3 342 -128 3 c-96 2 -129 -1
-132 -10z"/>
<path d="M2975 3908 c-3 -7 -4 -206 -3 -443 l3 -430 195 -3 c221 -3 301 7 389
48 160 76 241 228 228 430 -14 230 -146 365 -391 399 -112 16 -415 15 -421 -1z
m422 -202 c87 -45 127 -161 103 -299 -21 -118 -85 -176 -202 -185 l-58 -4 0
257 0 258 65 -6 c35 -3 77 -13 92 -21z"/>
<path d="M1004 2916 c-18 -14 -19 -32 -22 -453 -2 -342 1 -443 11 -463 l13
-25 294 0 c255 0 303 3 352 18 109 35 169 98 189 200 21 102 -18 190 -107 246
l-44 27 44 31 c59 42 88 98 87 172 0 132 -79 210 -249 246 -96 21 -540 21
-568 1z m577 -50 c112 -26 178 -84 193 -168 14 -76 -29 -151 -110 -191 -38
-19 -55 -39 -46 -54 4 -5 30 -22 57 -36 86 -44 125 -99 125 -178 0 -73 -42
-144 -105 -177 -74 -38 -126 -44 -397 -49 l-268 -5 0 436 0 436 248 0 c170 0
265 -4 303 -14z"/>
<path d="M1277 2733 c-4 -3 -7 -48 -7 -100 0 -91 1 -94 26 -103 31 -12 106
-12 157 -1 77 18 115 87 83 149 -27 53 -50 62 -157 62 -52 0 -99 -3 -102 -7z
m197 -54 c25 -20 33 -53 18 -75 -15 -23 -53 -34 -116 -34 l-66 0 0 65 0 65 69
0 c54 0 74 -4 95 -21z"/>
<path d="M1283 2369 c-9 -9 -13 -45 -13 -106 0 -84 2 -93 22 -104 31 -17 176
-7 209 14 61 40 70 120 20 171 -30 30 -35 31 -129 34 -69 3 -101 0 -109 -9z
m208 -60 c15 -15 19 -28 14 -47 -11 -48 -39 -62 -121 -62 l-74 0 0 65 0 65 80
0 c68 0 83 -3 101 -21z"/>
<path d="M1916 2914 c-14 -14 -16 -69 -16 -460 0 -288 4 -452 10 -465 10 -17
23 -19 149 -19 121 0 140 2 154 18 15 17 17 63 17 461 0 286 -4 449 -10 462
-10 17 -23 19 -150 19 -113 0 -142 -3 -154 -16z m264 -469 l0 -435 -115 0
-115 0 0 435 0 435 115 0 115 0 0 -435z"/>
<path d="M2326 2914 c-14 -14 -16 -69 -16 -460 0 -288 4 -452 10 -465 10 -17
23 -19 149 -19 176 0 171 -4 171 145 l0 108 41 54 c23 29 43 52 44 51 1 -2 35
-77 74 -168 40 -91 79 -171 88 -177 12 -9 61 -13 163 -13 149 0 170 5 170 40
0 8 -63 145 -140 304 l-140 288 110 136 c60 75 110 142 110 149 0 6 -7 19 -16
27 -12 13 -40 16 -135 16 -66 0 -129 -4 -139 -10 -10 -5 -65 -75 -122 -155
l-103 -146 -5 143 c-3 79 -9 149 -13 156 -6 9 -47 12 -147 12 -113 0 -142 -3
-154 -16z m264 -198 c0 -169 6 -195 43 -181 8 4 68 81 132 172 65 90 123 167
130 169 6 3 55 3 108 2 l97 -3 -98 -122 c-55 -67 -102 -129 -106 -139 -4 -11
42 -116 134 -306 77 -159 140 -292 140 -294 0 -2 -56 -4 -125 -4 l-125 0 -18
38 c-11 20 -45 98 -77 172 -60 139 -79 170 -101 170 -8 0 -41 -34 -74 -76
l-60 -77 0 -113 0 -114 -115 0 -115 0 0 435 0 435 115 0 115 0 0 -164z"/>
<path d="M3279 2913 c-11 -13 -14 -99 -14 -463 0 -364 3 -450 14 -463 12 -15
51 -17 372 -17 312 0 360 2 373 16 21 21 23 196 3 213 -9 7 -89 12 -223 13
l-209 3 -3 58 -3 57 131 0 130 0 10 26 c13 33 13 155 0 188 -9 25 -11 25 -137
28 l-128 3 -3 53 -3 52 199 0 c155 0 202 3 218 14 27 20 35 194 9 219 -15 15
-54 17 -369 17 -317 0 -355 -2 -367 -17z m701 -108 l0 -75 -196 0 c-115 0
-203 -4 -215 -10 -16 -9 -19 -22 -19 -88 0 -47 5 -83 12 -90 8 -8 53 -12 135
-12 l124 0 -3 -77 -3 -78 -130 -5 -130 -5 0 -95 0 -95 218 -3 217 -2 0 -80 0
-80 -340 0 -340 0 0 435 0 435 335 0 335 0 0 -75z"/>
</g>
</svg>
